<?xml version="1.0" encoding="UTF-8" standalone="no"?>
<svg width="86px" height="28px" viewBox="0 0 86 28" version="1.1" xmlns="http://www.w3.org/2000/svg" xmlns:xlink="http://www.w3.org/1999/xlink">
    <!-- Generator: Sketch 39.1 (31720) - http://www.bohemiancoding.com/sketch -->
    <title>Logo</title>
    <desc>Created with Sketch.</desc>
    <defs></defs>
    <g id="Symbols" stroke="none" stroke-width="1" fill="none" fill-rule="evenodd" fill-opacity="0.74">
        <g id="Logo" fill="#000000">
            <g id="Group" transform="translate(1.000000, 5.000000)">
                <path d="M11.8520508,3.46484375 C11.8520508,3.772788 11.8108728,4.05387243 11.7285156,4.30810547 C11.6461584,4.56233851 11.5333666,4.78076081 11.3901367,4.96337891 C11.2469068,5.14599701 11.0714529,5.28743439 10.8637695,5.38769531 C10.6560862,5.48795623 10.4305025,5.53808594 10.1870117,5.53808594 C9.90771345,5.53808594 9.65527457,5.4790045 9.4296875,5.36083984 C9.20410043,5.24267519 9.00895265,5.07259226 8.84423828,4.85058594 C9.11637506,4.6500641 9.33479735,4.38330245 9.49951172,4.05029297 C9.66422608,3.71728349 9.74658203,3.3610045 9.74658203,2.98144531 C9.74658203,2.5087867 9.60693499,2.13460424 9.32763672,1.85888672 C9.04833845,1.58316919 8.66520426,1.4453125 8.17822266,1.4453125 C7.8846014,1.4453125 7.61425905,1.50081325 7.3671875,1.61181641 C7.12011595,1.72281957 6.90885504,1.87678938 6.73339844,2.07373047 C6.55794183,2.27067156 6.42187548,2.50520697 6.32519531,2.77734375 C6.22851514,3.04948053 6.18017578,3.34667808 6.18017578,3.66894531 C6.18017578,4.15592691 6.29833866,4.61425566 6.53466797,5.04394531 C6.77099728,5.47363496 7.06819482,5.89615678 7.42626953,6.31152344 C7.78434424,6.7268901 8.17105912,7.14762157 8.58642578,7.57373047 C9.00179244,7.99983937 9.38850732,8.45458743 9.74658203,8.93798828 C10.1046567,9.42138914 10.4018543,9.94417037 10.6381836,10.5063477 C10.8745129,11.0685249 10.9926758,11.6897752 10.9926758,12.3701172 C10.9926758,13.0934281 10.8422867,13.7612274 10.5415039,14.3735352 C10.2407212,14.9858429 9.82357038,15.5157855 9.29003906,15.9633789 C8.75650775,16.4109723 8.12988641,16.7618802 7.41015625,17.0161133 C6.69042609,17.2703463 5.91162528,17.3974609 5.07373047,17.3974609 C4.37190404,17.3974609 3.73633097,17.3061533 3.16699219,17.1235352 C2.5976534,16.9409171 2.11067911,16.6795264 1.70605469,16.3393555 C1.30143027,15.9991845 0.9881196,15.5927758 0.766113281,15.1201172 C0.544106963,14.6474586 0.433105469,14.1210967 0.433105469,13.5410156 C0.433105469,13.054034 0.511880723,12.599286 0.669433594,12.1767578 C0.826986465,11.7542297 1.04182807,11.3872086 1.31396484,11.0756836 C1.58610162,10.7641586 1.90836402,10.5188811 2.28076172,10.3398438 C2.65315941,10.1608064 3.05061638,10.0712891 3.47314453,10.0712891 C3.98877211,10.0712891 4.42203601,10.200194 4.77294922,10.4580078 C5.12386243,10.7158216 5.34228473,11.0703102 5.42822266,11.5214844 C5.04150197,11.5214844 4.69417472,11.5751948 4.38623047,11.6826172 C4.07828622,11.7900396 3.81689561,11.9404287 3.60205078,12.1337891 C3.38720596,12.3271494 3.22070372,12.5616848 3.10253906,12.8374023 C2.98437441,13.1131199 2.92529297,13.4228498 2.92529297,13.7666016 C2.92529297,14.411136 3.11327937,14.9213848 3.48925781,15.2973633 C3.86523625,15.6733417 4.37190437,15.8613281 5.00927734,15.8613281 C5.39599803,15.8613281 5.75406736,15.7915046 6.08349609,15.6518555 C6.41292482,15.5122063 6.6957996,15.3206392 6.93212891,15.0771484 C7.16845821,14.8336576 7.35465427,14.5436215 7.49072266,14.2070312 C7.62679104,13.870441 7.69482422,13.5052103 7.69482422,13.1113281 C7.69482422,12.7102845 7.62858139,12.3253599 7.49609375,11.956543 C7.36360611,11.587726 7.18636179,11.2296567 6.96435547,10.8823242 C6.74234915,10.5349918 6.49170062,10.1930355 6.21240234,9.85644531 C5.93310407,9.51985509 5.6466486,9.18147957 5.35302734,8.84130859 C5.05940608,8.50113762 4.77295062,8.15918141 4.49365234,7.81542969 C4.21435407,7.47167797 3.96370554,7.11897967 3.74169922,6.75732422 C3.5196929,6.39566876 3.34244858,6.02148631 3.20996094,5.63476562 C3.0774733,5.24804494 3.01123047,4.8398459 3.01123047,4.41015625 C3.01123047,3.83007522 3.13476439,3.29476157 3.38183594,2.80419922 C3.62890749,2.31363687 3.97265405,1.88932471 4.41308594,1.53125 C4.85351783,1.17317529 5.37450871,0.892090864 5.97607422,0.687988281 C6.57763973,0.483885698 7.23290661,0.381835938 7.94189453,0.381835938 C8.53629854,0.381835938 9.07340255,0.455240151 9.55322266,0.602050781 C10.0330428,0.748861411 10.4430322,0.956541626 10.7832031,1.22509766 C11.1233741,1.49365369 11.3865551,1.81770644 11.5727539,2.19726562 C11.7589528,2.57682481 11.8520508,2.99934663 11.8520508,3.46484375 L11.8520508,3.46484375 Z M20.6821289,8.234375 C20.7179364,8.43489684 20.7447916,8.64794809 20.7626953,8.87353516 C20.780599,9.09912222 20.7895508,9.33723833 20.7895508,9.58789062 C20.7895508,10.6549533 20.6445327,11.6468053 20.3544922,12.5634766 C20.0644517,13.4801478 19.6669947,14.2768521 19.1621094,14.9536133 C18.657224,15.6303745 18.0592482,16.1621074 17.3681641,16.5488281 C16.6770799,16.9355488 15.934086,17.1289062 15.1391602,17.1289062 C14.4516567,17.1289062 13.8680037,16.9820978 13.3881836,16.6884766 L11.9702148,18.3212891 L10.7348633,18.3212891 L12.7006836,16.0439453 C12.199379,15.3779264 11.9487305,14.4433654 11.9487305,13.2402344 C11.9487305,12.5742154 12.0203443,11.9296906 12.1635742,11.3066406 C12.3068041,10.6835906 12.5109036,10.0999376 12.7758789,9.55566406 C13.0408542,9.01139051 13.3577456,8.51367413 13.7265625,8.0625 C14.0953794,7.61132587 14.5017881,7.22640133 14.9458008,6.90771484 C15.3898134,6.58902835 15.867836,6.34017017 16.3798828,6.16113281 C16.8919296,5.98209546 17.4236626,5.89257812 17.9750977,5.89257812 C18.5551787,5.89257812 19.0403626,5.99641823 19.4306641,6.20410156 C19.8209655,6.41178489 20.1271148,6.73762799 20.3491211,7.18164062 L21.3696289,6 L22.6049805,6 L20.6821289,8.234375 Z M18.1791992,7.09570312 C17.9571929,7.09570312 17.7316092,7.17805907 17.5024414,7.34277344 C17.2732736,7.5074878 17.0512706,7.73486183 16.8364258,8.02490234 C16.621581,8.31494286 16.4210621,8.65510873 16.2348633,9.04541016 C16.0486644,9.43571159 15.8821622,9.85286236 15.7353516,10.296875 C15.5885409,10.7408876 15.4703781,11.2027971 15.3808594,11.6826172 C15.2913407,12.1624373 15.2394206,12.6386695 15.2250977,13.1113281 L19.0170898,8.72851562 C19.0027669,8.21288805 18.9222013,7.81185039 18.7753906,7.52539062 C18.62858,7.23893086 18.4298515,7.09570312 18.1791992,7.09570312 L18.1791992,7.09570312 Z M16.0844727,15.0664062 C16.3852554,15.0664062 16.6842433,14.9357109 16.9814453,14.6743164 C17.2786473,14.4129219 17.5543607,14.0638043 17.8085938,13.6269531 C18.0628268,13.190102 18.2866201,12.6834339 18.4799805,12.1069336 C18.6733408,11.5304333 18.8165685,10.9235058 18.909668,10.2861328 L15.3432617,14.421875 C15.4721686,14.8515646 15.7192365,15.0664062 16.0844727,15.0664062 L16.0844727,15.0664062 Z M20.8110352,17 L23.1420898,6 L26.3110352,6 L26.0317383,7.36425781 C26.2250986,7.19238195 26.4220368,7.02408937 26.6225586,6.859375 C26.8230804,6.69466063 27.032551,6.54964255 27.2509766,6.42431641 C27.4694021,6.29899026 27.6967762,6.1969405 27.9331055,6.11816406 C28.1694348,6.03938763 28.4200833,6 28.6850586,6 C28.9357109,6 29.1559235,6.04654901 29.3457031,6.13964844 C29.5354827,6.23274786 29.6948236,6.35449144 29.8237305,6.50488281 C29.9526374,6.65527419 30.0493161,6.83072816 30.1137695,7.03125 C30.178223,7.23177184 30.2104492,7.43945205 30.2104492,7.65429688 C30.2104492,7.84765722 30.178223,8.03922431 30.1137695,8.22900391 C30.0493161,8.4187835 29.950847,8.58886644 29.8183594,8.73925781 C29.6858717,8.88964919 29.5193695,9.01318311 29.3188477,9.10986328 C29.1183258,9.20654345 28.8855808,9.25488281 28.6206055,9.25488281 C28.4129221,9.25488281 28.2535813,9.21907588 28.1425781,9.14746094 C28.031575,9.075846 27.9474287,8.98632866 27.8901367,8.87890625 C27.8328448,8.77148384 27.7916668,8.6551113 27.7666016,8.52978516 C27.7415363,8.40445901 27.7146811,8.28808647 27.6860352,8.18066406 C27.6573892,8.07324165 27.6197919,7.98372432 27.5732422,7.91210938 C27.5266925,7.84049443 27.4497076,7.8046875 27.3422852,7.8046875 C27.0056949,7.8046875 26.7228202,7.88167241 26.4936523,8.03564453 C26.2644845,8.18961666 26.013836,8.39192583 25.7416992,8.64257812 L23.9799805,17 L20.8110352,17 Z M36.7202148,13.0576172 C36.5125315,13.6520212 36.2815768,14.167641 36.0273438,14.6044922 C35.7731107,15.0413433 35.5081394,15.4101547 35.2324219,15.7109375 C34.9567044,16.0117203 34.6738296,16.2552074 34.3837891,16.4414062 C34.0937485,16.6276051 33.8126641,16.7708328 33.5405273,16.8710938 C33.2683906,16.9713547 33.0087903,17.0393878 32.7617188,17.0751953 C32.5146472,17.1110028 32.2944346,17.1289062 32.1010742,17.1289062 C31.7716455,17.1289062 31.4637059,17.0787765 31.1772461,16.9785156 C30.8907863,16.8782547 30.6419281,16.7207042 30.4306641,16.5058594 C30.2194,16.2910146 30.0528977,16.0188819 29.9311523,15.6894531 C29.8094069,15.3600244 29.7485352,14.9625674 29.7485352,14.4970703 C29.7485352,14.2965485 29.7628579,14.0763358 29.7915039,13.8364258 C29.8201499,13.5965157 29.8631182,13.3369155 29.9204102,13.0576172 L32.2729492,2.03613281 L35.527832,1.59570312 L33.003418,13.4765625 C32.9676105,13.5983079 32.944336,13.7182611 32.9335938,13.8364258 C32.9228515,13.9545904 32.9174805,14.070963 32.9174805,14.1855469 C32.9174805,14.4934911 32.9890943,14.7065424 33.1323242,14.824707 C33.2755541,14.9428717 33.5011378,15.0019531 33.809082,15.0019531 C34.0239269,15.0019531 34.2333974,14.9536138 34.4375,14.8569336 C34.6416026,14.7602534 34.829589,14.6259774 35.0014648,14.4541016 C35.1733407,14.2822257 35.3273105,14.0763358 35.4633789,13.8364258 C35.5994473,13.5965157 35.7104488,13.3369155 35.7963867,13.0576172 L36.7202148,13.0576172 Z M48.1606445,8.64257812 C47.7309549,9.09375226 47.1759474,9.47688645 46.4956055,9.79199219 C45.8152635,10.1070979 45.0704793,10.3326816 44.2612305,10.46875 C44.1752925,11.4856822 43.9801448,12.4023397 43.6757812,13.21875 C43.3714177,14.0351603 42.9864932,14.7298148 42.5209961,15.3027344 C42.055499,15.8756539 41.5219757,16.3160792 40.9204102,16.6240234 C40.3188446,16.9319677 39.6814812,17.0859375 39.0083008,17.0859375 C38.4998347,17.0859375 38.0289735,17.0232754 37.5957031,16.8979492 C37.1624327,16.7726231 36.7900406,16.5721042 36.4785156,16.2963867 C36.1669906,16.0206692 35.9235035,15.6625999 35.7480469,15.222168 C35.5725903,14.7817361 35.4848633,14.2464224 35.4848633,13.6162109 C35.4848633,13.1865213 35.5296219,12.6977566 35.6191406,12.1499023 C35.7086593,11.602048 35.851887,11.0380888 36.0488281,10.4580078 C36.2457692,9.87792679 36.4999984,9.31038689 36.8115234,8.75537109 C37.1230484,8.2003553 37.5026019,7.70442927 37.9501953,7.26757812 C38.3977887,6.83072698 38.9151989,6.47802869 39.5024414,6.20947266 C40.0896839,5.94091663 40.7592736,5.80664062 41.5112305,5.80664062 C43.3947034,5.80664062 44.3364258,6.97752735 44.3364258,9.31933594 L44.3364258,9.34082031 C44.3722333,9.3551433 44.4062498,9.36230469 44.4384766,9.36230469 L44.5727539,9.36230469 C44.8305677,9.36230469 45.1080714,9.32470741 45.4052734,9.24951172 C45.7024754,9.17431603 46.0014633,9.07584696 46.3022461,8.95410156 C46.6030288,8.83235616 46.8966457,8.69091877 47.1831055,8.52978516 C47.4695652,8.36865154 47.7309558,8.20572999 47.9672852,8.04101562 L48.1606445,8.64257812 Z M42.4350586,10.5332031 C42.2058908,10.4759112 42.0501306,10.3631193 41.9677734,10.1948242 C41.8854163,10.0265291 41.8442383,9.83138132 41.8442383,9.609375 C41.8442383,9.30143075 41.9069004,9.04899187 42.0322266,8.85205078 C42.1575527,8.65510969 42.324055,8.51009161 42.5317383,8.41699219 C42.5174153,8.18066288 42.4923504,7.9819344 42.456543,7.82080078 C42.4207355,7.65966716 42.3706058,7.52718151 42.3061523,7.42333984 C42.2416989,7.31949818 42.1611333,7.24609396 42.0644531,7.203125 C41.967773,7.16015604 41.844239,7.13867188 41.6938477,7.13867188 C41.4288724,7.13867188 41.1746431,7.24072164 40.9311523,7.44482422 C40.6876615,7.6489268 40.4567068,7.91926915 40.2382812,8.25585938 C40.0198557,8.5924496 39.8193369,8.97737414 39.6367188,9.41064453 C39.4541006,9.84391493 39.2983405,10.2897112 39.1694336,10.7480469 C39.0405267,11.2063825 38.9402673,11.6593402 38.8686523,12.1069336 C38.7970374,12.554527 38.7612305,12.9609357 38.7612305,13.3261719 C38.7612305,13.6914081 38.7809243,13.9886056 38.8203125,14.2177734 C38.8597007,14.4469413 38.9241532,14.6277663 39.0136719,14.7602539 C39.1031906,14.8927415 39.2195631,14.9840492 39.362793,15.0341797 C39.5060229,15.0843101 39.6814768,15.109375 39.8891602,15.109375 C40.1541354,15.109375 40.4208971,14.9912121 40.6894531,14.7548828 C40.9580092,14.5185535 41.2068673,14.1962911 41.4360352,13.7880859 C41.665203,13.3798808 41.8675121,12.8964872 42.0429688,12.3378906 C42.2184254,11.7792941 42.3491207,11.1777376 42.4350586,10.5332031 L42.4350586,10.5332031 Z M52.253418,13.0576172 C52.0457346,13.6520212 51.8147799,14.167641 51.5605469,14.6044922 C51.3063138,15.0413433 51.0413425,15.4101547 50.765625,15.7109375 C50.4899075,16.0117203 50.2070327,16.2552074 49.9169922,16.4414062 C49.6269517,16.6276051 49.3458672,16.7708328 49.0737305,16.8710938 C48.8015937,16.9713547 48.5419934,17.0393878 48.2949219,17.0751953 C48.0478503,17.1110028 47.8276377,17.1289062 47.6342773,17.1289062 C47.3048486,17.1289062 46.996909,17.0787765 46.7104492,16.9785156 C46.4239895,16.8782547 46.1751313,16.7207042 45.9638672,16.5058594 C45.7526031,16.2910146 45.5861009,16.0188819 45.4643555,15.6894531 C45.3426101,15.3600244 45.2817383,14.9625674 45.2817383,14.4970703 C45.2817383,14.2965485 45.2960611,14.0763358 45.324707,13.8364258 C45.353353,13.5965157 45.3963213,13.3369155 45.4536133,13.0576172 L46.7749023,6.88085938 L46.0444336,6.88085938 L46.2270508,6 L46.9467773,6 L47.612793,2.95996094 L50.8676758,2.51953125 L50.1157227,6 L51.4370117,6 L51.2651367,6.88085938 L49.9438477,6.88085938 L48.5366211,13.4765625 C48.5008136,13.5983079 48.4775391,13.7182611 48.4667969,13.8364258 C48.4560546,13.9545904 48.4506836,14.070963 48.4506836,14.1855469 C48.4506836,14.4934911 48.5222975,14.7065424 48.6655273,14.824707 C48.8087572,14.9428717 49.0343409,15.0019531 49.3422852,15.0019531 C49.55713,15.0019531 49.7666005,14.9536138 49.9707031,14.8569336 C50.1748057,14.7602534 50.3627921,14.6259774 50.534668,14.4541016 C50.7065438,14.2822257 50.8605136,14.0763358 50.996582,13.8364258 C51.1326504,13.5965157 51.2436519,13.3369155 51.3295898,13.0576172 L52.253418,13.0576172 Z M63.3608398,13.0576172 C63.0528956,13.9599654 62.7216815,14.6796848 62.3671875,15.2167969 C62.0126935,15.7539089 61.6546242,16.1638983 61.2929688,16.4467773 C60.9313133,16.7296564 60.5768247,16.9140621 60.2294922,17 C59.8821597,17.0859379 59.5616877,17.1289062 59.2680664,17.1289062 C58.7810848,17.1289062 58.3728858,17.0590827 58.043457,16.9194336 C57.7140283,16.7797845 57.449057,16.5935884 57.2485352,16.3608398 C57.0480133,16.1280913 56.9029952,15.86312 56.8134766,15.565918 C56.7239579,15.268716 56.6791992,14.9625667 56.6791992,14.6474609 C56.6791992,14.2750632 56.7311193,13.840009 56.8349609,13.3422852 C56.9388026,12.8445613 57.0515944,12.3343125 57.1733398,11.8115234 C57.2950852,11.2887344 57.4078771,10.7838566 57.5117188,10.296875 C57.6155604,9.8098934 57.6674805,9.39095228 57.6674805,9.04003906 C57.6674805,8.28808218 57.4025092,7.91210938 56.8725586,7.91210938 C56.6720368,7.91210938 56.4858407,7.96581978 56.3139648,8.07324219 C56.142089,8.1806646 55.9845385,8.32568268 55.8413086,8.50830078 C55.6980787,8.69091888 55.5691737,8.90576048 55.4545898,9.15283203 C55.3400059,9.39990358 55.2397465,9.66308454 55.1538086,9.94238281 L53.6606445,17 L50.4916992,17 L53.6821289,2.03613281 L56.9370117,1.59570312 L55.7553711,7.13867188 C55.9917004,6.87369659 56.2262358,6.66064534 56.4589844,6.49951172 C56.6917329,6.3383781 56.919107,6.21484418 57.1411133,6.12890625 C57.3631196,6.04296832 57.5725902,5.98567723 57.7695312,5.95703125 C57.9664723,5.92838527 58.150878,5.9140625 58.3227539,5.9140625 C58.6736671,5.9140625 58.9995102,5.96061151 59.300293,6.05371094 C59.6010757,6.14681036 59.860676,6.29361879 60.0791016,6.49414062 C60.2975271,6.69466246 60.4676101,6.95247238 60.5893555,7.26757812 C60.7111009,7.58268387 60.7719727,7.95865667 60.7719727,8.39550781 C60.7719727,8.68912907 60.7451175,9.00602043 60.6914062,9.34619141 C60.637695,9.68636238 60.5714522,10.0336896 60.4926758,10.3881836 C60.4138993,10.7426776 60.3297531,11.0953758 60.2402344,11.4462891 C60.1507157,11.7972023 60.0665694,12.1337875 59.987793,12.4560547 C59.9090165,12.7783219 59.8427737,13.0773098 59.7890625,13.3530273 C59.7353513,13.6287449 59.7084961,13.8704417 59.7084961,14.078125 C59.7084961,14.3502618 59.7711582,14.5722648 59.8964844,14.7441406 C60.0218105,14.9160165 60.2527652,15.0019531 60.5893555,15.0019531 C60.8256848,15.0019531 61.033365,14.9554041 61.2124023,14.8623047 C61.3914397,14.7692053 61.5525709,14.6367196 61.6958008,14.4648438 C61.8390307,14.2929679 61.969726,14.087078 62.0878906,13.847168 C62.2060553,13.6072579 62.3224278,13.344077 62.4370117,13.0576172 L63.3608398,13.0576172 Z M67.8725586,3.078125 C67.8725586,3.3216158 67.8260096,3.54898983 67.7329102,3.76025391 C67.6398107,3.97151798 67.5126961,4.15413334 67.3515625,4.30810547 C67.1904289,4.46207759 67.0042328,4.58382117 66.7929688,4.67333984 C66.5817047,4.76285852 66.3543306,4.80761719 66.1108398,4.80761719 C65.867349,4.80761719 65.639975,4.76285852 65.4287109,4.67333984 C65.2174469,4.58382117 65.0330412,4.46207759 64.8754883,4.30810547 C64.7179354,4.15413334 64.5944015,3.97151798 64.5048828,3.76025391 C64.4153641,3.54898983 64.3706055,3.3216158 64.3706055,3.078125 C64.3706055,2.8346342 64.4153641,2.60726017 64.5048828,2.39599609 C64.5944015,2.18473202 64.7179354,1.99853596 64.8754883,1.83740234 C65.0330412,1.67626873 65.2174469,1.54915411 65.4287109,1.45605469 C65.639975,1.36295526 65.867349,1.31640625 66.1108398,1.31640625 C66.3543306,1.31640625 66.5817047,1.36295526 66.7929688,1.45605469 C67.0042328,1.54915411 67.1904289,1.67626873 67.3515625,1.83740234 C67.5126961,1.99853596 67.6398107,2.18473202 67.7329102,2.39599609 C67.8260096,2.60726017 67.8725586,2.8346342 67.8725586,3.078125 L67.8725586,3.078125 Z M69.2368164,13.0576172 C69.0291331,13.6520212 68.7981784,14.167641 68.5439453,14.6044922 C68.2897123,15.0413433 68.024741,15.4101547 67.7490234,15.7109375 C67.4733059,16.0117203 67.1904311,16.2552074 66.9003906,16.4414062 C66.6103501,16.6276051 66.3292657,16.7708328 66.0571289,16.8710938 C65.7849921,16.9713547 65.5253919,17.0393878 65.2783203,17.0751953 C65.0312488,17.1110028 64.8110361,17.1289062 64.6176758,17.1289062 C64.2882471,17.1289062 63.9803074,17.0787765 63.6938477,16.9785156 C63.4073879,16.8782547 63.1585297,16.7207042 62.9472656,16.5058594 C62.7360015,16.2910146 62.5694993,16.0188819 62.4477539,15.6894531 C62.3260085,15.3600244 62.2651367,14.9625674 62.2651367,14.4970703 C62.2651367,14.2965485 62.2794595,14.0763358 62.3081055,13.8364258 C62.3367514,13.5965157 62.3797198,13.3369155 62.4370117,13.0576172 L63.9301758,6 L67.0991211,6 L65.5200195,13.4765625 C65.4842121,13.5983079 65.4609376,13.7182611 65.4501953,13.8364258 C65.4394531,13.9545904 65.434082,14.070963 65.434082,14.1855469 C65.434082,14.4934911 65.5056959,14.7065424 65.6489258,14.824707 C65.7921557,14.9428717 66.0177393,15.0019531 66.3256836,15.0019531 C66.5405284,15.0019531 66.749999,14.9536138 66.9541016,14.8569336 C67.1582041,14.7602534 67.3461905,14.6259774 67.5180664,14.4541016 C67.6899423,14.2822257 67.8439121,14.0763358 67.9799805,13.8364258 C68.1160489,13.5965157 68.2270504,13.3369155 68.3129883,13.0576172 L69.2368164,13.0576172 Z M70.1821289,4.25976562 C70.3396818,3.47200127 70.5706365,2.83463785 70.875,2.34765625 C71.1793635,1.86067465 71.517739,1.48112115 71.8901367,1.20898438 C72.2625344,0.936847598 72.6492493,0.754232236 73.050293,0.661132812 C73.4513366,0.568033389 73.8308901,0.521484375 74.1889648,0.521484375 C74.5183936,0.521484375 74.8388656,0.578775469 75.1503906,0.693359375 C75.4619156,0.807943281 75.737629,0.969074482 75.9775391,1.17675781 C76.2174491,1.38444114 76.4108066,1.63329933 76.5576172,1.92333984 C76.7044278,2.21338036 76.777832,2.53743311 76.777832,2.89550781 C76.777832,3.23925953 76.7563479,3.54003777 76.7133789,3.79785156 L75.6821289,3.79785156 C75.6964519,3.67610616 75.707194,3.57226605 75.7143555,3.48632812 C75.721517,3.4003902 75.7250977,3.30729217 75.7250977,3.20703125 C75.7250977,2.95637896 75.6409514,2.76839255 75.4726562,2.64306641 C75.3043611,2.51774026 75.1092133,2.45507812 74.887207,2.45507812 C74.7726231,2.45507812 74.6419278,2.48014298 74.4951172,2.53027344 C74.3483066,2.5804039 74.2014981,2.67171158 74.0546875,2.80419922 C73.9078769,2.93668686 73.7718105,3.12109257 73.6464844,3.35742188 C73.5211582,3.59375118 73.4226892,3.89452942 73.3510742,4.25976562 L72.9750977,6 L74.5864258,6 L74.425293,6.88085938 L72.8032227,6.88085938 L70.2680664,18.7617188 C70.1105135,19.5494831 69.8831395,20.1868465 69.5859375,20.6738281 C69.2887355,21.1608097 68.9593117,21.5403632 68.5976562,21.8125 C68.2360008,22.0846368 67.8582376,22.2672521 67.4643555,22.3603516 C67.0704733,22.453451 66.6945005,22.5 66.3364258,22.5 C66.0069971,22.5 65.686525,22.4427089 65.375,22.328125 C65.063475,22.2135411 64.7859713,22.0524099 64.5424805,21.8447266 C64.2989897,21.6370432 64.1038419,21.388185 63.9570312,21.0981445 C63.8102206,20.808104 63.7368164,20.4840513 63.7368164,20.1259766 C63.7368164,19.6175105 63.8352855,19.1896176 64.0322266,18.8422852 C64.2291677,18.4949527 64.49951,18.1977551 64.8432617,17.9506836 C65.1870134,17.703612 65.5880511,17.4941415 66.0463867,17.3222656 C66.5047223,17.1503898 66.9952773,16.9856779 67.5180664,16.828125 L70.1821289,4.25976562 Z M67.3676758,17.5478516 C67.0239241,17.6624355 66.703452,17.7895501 66.40625,17.9291992 C66.109048,18.0688484 65.8530284,18.2299796 65.6381836,18.4125977 C65.4233388,18.5952158 65.2550462,18.8011056 65.1333008,19.0302734 C65.0115554,19.2594413 64.9506836,19.5208319 64.9506836,19.8144531 C64.9506836,19.9003911 64.9721678,19.9863277 65.0151367,20.0722656 C65.0581057,20.1582036 65.1189775,20.2351885 65.1977539,20.3032227 C65.2765303,20.3712569 65.3696284,20.4285479 65.4770508,20.4750977 C65.5844732,20.5216474 65.7026361,20.5449219 65.831543,20.5449219 C65.9461269,20.5449219 66.0624994,20.5180667 66.1806641,20.4643555 C66.2988287,20.4106443 66.4134109,20.3175462 66.5244141,20.1850586 C66.6354172,20.052571 66.737467,19.8753266 66.8305664,19.6533203 C66.9236658,19.431314 67.0060218,19.1556006 67.0776367,18.8261719 L67.3676758,17.5478516 Z M79.0551758,15.8613281 C78.8188465,16.1334649 78.5825207,16.3518872 78.3461914,16.5166016 C78.1098621,16.6813159 77.877117,16.8084305 77.6479492,16.8979492 C77.4187814,16.9874679 77.1967784,17.0483397 76.9819336,17.0805664 C76.7670888,17.1127931 76.5629892,17.1289062 76.3696289,17.1289062 C76.0402002,17.1289062 75.7322605,17.0787765 75.4458008,16.9785156 C75.159341,16.8782547 74.9104828,16.7207042 74.6992188,16.5058594 C74.4879547,16.2910146 74.3214524,16.0188819 74.199707,15.6894531 C74.0779616,15.3600244 74.0170898,14.9625674 74.0170898,14.4970703 C74.0170898,14.2965485 74.0314126,14.0763358 74.0600586,13.8364258 C74.0887046,13.5965157 74.1316729,13.3369155 74.1889648,13.0576172 L75.6821289,6 L78.8510742,6 L77.2719727,13.4765625 C77.2290037,13.6627613 77.2075195,13.8489574 77.2075195,14.0351562 C77.2075195,14.1640631 77.2182616,14.2858067 77.2397461,14.4003906 C77.2612306,14.5149745 77.2970375,14.6170243 77.347168,14.706543 C77.3972984,14.7960616 77.4635413,14.8676755 77.5458984,14.9213867 C77.6282556,14.9750979 77.7338861,15.0019531 77.862793,15.0019531 C78.0776378,15.0019531 78.2745759,14.9536138 78.4536133,14.8569336 C78.6326506,14.7602534 78.7955722,14.6259774 78.9423828,14.4541016 C79.0891934,14.2822257 79.2180984,14.0763358 79.3291016,13.8364258 C79.4401047,13.5965157 79.5385738,13.3369155 79.6245117,13.0576172 L81.1176758,6 L84.3081055,6 L81.6225586,18.7617188 C81.4650057,19.5494831 81.234051,20.1868465 80.9296875,20.6738281 C80.625324,21.1608097 80.2887388,21.5403632 79.9199219,21.8125 C79.5511049,22.0846368 79.16439,22.2672521 78.7597656,22.3603516 C78.3551412,22.453451 77.9737974,22.5 77.6157227,22.5 C77.2862939,22.5 76.9658219,22.4427089 76.6542969,22.328125 C76.3427719,22.2135411 76.0670585,22.0524099 75.8271484,21.8447266 C75.5872384,21.6370432 75.3938809,21.388185 75.2470703,21.0981445 C75.1002597,20.808104 75.0268555,20.4840513 75.0268555,20.1259766 C75.0268555,19.610349 75.1253245,19.1770851 75.3222656,18.8261719 C75.5192067,18.4752587 75.7895491,18.1780611 76.1333008,17.9345703 C76.4770525,17.6910795 76.8798805,17.4851896 77.3417969,17.3168945 C77.8037132,17.1485994 78.2996393,16.9856779 78.8295898,16.828125 L79.0551758,15.8613281 Z M78.6791992,17.5263672 C78.3354475,17.6409511 78.0131851,17.7698561 77.7124023,17.9130859 C77.4116196,18.0563158 77.1520193,18.2192374 76.9335938,18.4018555 C76.7151682,18.5844736 76.5432949,18.7921538 76.4179688,19.0249023 C76.2926426,19.2576509 76.2299805,19.5208319 76.2299805,19.8144531 C76.2299805,19.9003911 76.2514646,19.9863277 76.2944336,20.0722656 C76.3374026,20.1582036 76.3982743,20.2351885 76.4770508,20.3032227 C76.5558272,20.3712569 76.6489252,20.4285479 76.7563477,20.4750977 C76.8637701,20.5216474 76.9819329,20.5449219 77.1108398,20.5449219 C77.2182623,20.5449219 77.3346348,20.5180667 77.4599609,20.4643555 C77.5852871,20.4106443 77.7070307,20.3175462 77.8251953,20.1850586 C77.94336,20.052571 78.0525711,19.8753266 78.152832,19.6533203 C78.2530929,19.431314 78.3390296,19.1556006 78.4106445,18.8261719 L78.6791992,17.5263672 Z" id="Sørlothify"></path>
            </g>
        </g>
    </g>
</svg>